<svg width="39" height="26" viewBox="0 0 39 26" fill="none" xmlns="http://www.w3.org/2000/svg">
<path d="M28.7786 22.6036C28.9167 23.5978 28.5404 24.5473 27.859 25.1424C27.7325 25.2542 27.5954 25.3523 27.4493 25.4366C27.3169 25.5119 27.1788 25.5768 27.0327 25.6281C26.7012 25.7455 26.3559 25.7888 26.0164 25.7672C26.0071 25.7672 25.9979 25.7672 25.9888 25.7649C25.3051 25.7159 24.6467 25.4058 24.1806 24.9099C23.4245 24.1062 23.4463 23.1075 23.4555 22.8989C23.4555 22.7985 23.4601 22.7006 23.4716 22.6036H15.2538C15.2654 22.7006 15.27 22.7985 15.27 22.8989C15.2792 23.1075 15.3011 24.1062 14.5449 24.9099C14.0787 25.4058 13.4205 25.7159 12.7368 25.7649C12.7276 25.7672 12.7183 25.7672 12.7091 25.7672C12.3696 25.7888 12.0244 25.7455 11.6929 25.6281C11.5467 25.5768 11.4086 25.5119 11.2762 25.4366C11.13 25.3523 10.9931 25.2542 10.8665 25.1436C10.8653 25.1436 10.8653 25.1424 10.8653 25.1424C10.1851 24.5462 9.80874 23.5978 9.94686 22.6036H6.98663C7.00619 22.5306 7.02691 22.4566 7.04648 22.3836C7.41478 21.0281 7.78308 19.6715 8.15139 18.3159L8.39308 18.3045L11.221 18.1792C11.3487 18.1735 11.4465 18.0674 11.4408 17.942C11.435 17.8154 11.3303 17.7174 11.2002 17.7243L8.51853 17.8428L8.27799 17.8542C8.4115 17.3595 8.54616 16.8658 8.67967 16.3722L8.91331 16.3916L11.1841 16.5796H11.2037C11.3222 16.5796 11.4235 16.4896 11.4327 16.371C11.4431 16.2457 11.3499 16.135 11.2233 16.1247L9.03531 15.9435L8.80167 15.9241C8.93748 15.4237 9.0733 14.9232 9.2091 14.4238L9.42548 14.507L11.58 15.3313C11.6065 15.3416 11.6353 15.3473 11.6629 15.3473C11.755 15.3473 11.8424 15.2914 11.877 15.2014C11.923 15.0839 11.8643 14.9517 11.7457 14.9061L9.54633 14.0635L9.32995 13.9815C10.5235 9.58778 11.7181 5.19409 12.9117 0.801514C13.7738 3.42816 14.6346 6.05481 15.4955 8.68032C16.1033 8.37479 17.5201 7.74891 19.3547 7.77741H19.3708C21.2053 7.74891 22.6222 8.37479 23.2299 8.68032C24.0908 6.05481 24.9518 3.42816 25.8138 0.801514C27.0073 5.19409 28.202 9.58778 29.3955 13.9815L29.1792 14.0635L26.9797 14.9061C26.8611 14.9517 26.8013 15.0839 26.8473 15.2014C26.883 15.2914 26.9705 15.3473 27.0626 15.3473C27.0902 15.3473 27.1178 15.3416 27.1454 15.3313L29.3 14.507L29.5164 14.4238C29.6522 14.9232 29.788 15.4237 29.9238 15.9241L29.6902 15.9435L27.5022 16.1247C27.3756 16.135 27.2813 16.2457 27.2915 16.371C27.302 16.4896 27.4032 16.5796 27.5206 16.5796H27.5402L29.8122 16.3916L30.0458 16.3722C30.1794 16.8658 30.314 17.3595 30.4475 17.8542L30.207 17.8428L27.5241 17.7243C27.3941 17.7196 27.2893 17.8154 27.2836 17.942C27.2778 18.0674 27.3768 18.1735 27.5034 18.1792L30.3324 18.3045L30.5741 18.3159C30.9424 19.6715 31.3107 21.0281 31.6791 22.3836C31.6986 22.4566 31.7193 22.5306 31.7388 22.6036H28.7786Z" fill="#F4E041"/>
<path d="M32.0381 22.8316L31.9783 22.6127L31.9161 22.3835L30.8135 18.3261L30.5741 18.3159L30.3324 18.3045L31.4384 22.3755H28.5139L28.5496 22.6344C28.6589 23.4175 28.4241 24.1768 27.9534 24.724C27.8636 24.8289 27.7646 24.9258 27.6587 25.0124C27.6266 25.0398 27.5931 25.066 27.5598 25.09C27.4907 25.1424 27.4194 25.1892 27.3445 25.2313C27.2214 25.3032 27.0914 25.3647 26.9543 25.4126C26.7265 25.4935 26.4893 25.5368 26.2512 25.5437C26.1728 25.546 26.0946 25.5437 26.0164 25.5391C25.9404 25.5346 25.8644 25.5254 25.7885 25.5129C25.2498 25.4274 24.7353 25.1652 24.3487 24.7537C23.7064 24.0707 23.6707 23.2363 23.6857 22.8988C23.6857 22.7997 23.6903 22.7118 23.6995 22.6297L23.7294 22.3755H14.9949L15.0248 22.6297C15.034 22.7118 15.0398 22.7997 15.0398 22.9079C15.0536 23.2363 15.0179 24.0707 14.3756 24.7537C13.989 25.1652 13.4745 25.4274 12.937 25.5129C12.8611 25.5254 12.7851 25.5346 12.7091 25.5391C12.6309 25.5437 12.5526 25.546 12.4743 25.5437C12.235 25.5368 11.9978 25.4935 11.7699 25.4126C11.6341 25.3647 11.5041 25.3043 11.3821 25.2325H11.3809C11.3061 25.1902 11.2336 25.1424 11.1646 25.09C11.1312 25.066 11.0978 25.0398 11.0656 25.0124C10.9597 24.9258 10.8607 24.8289 10.7709 24.724C10.3002 24.1768 10.0654 23.4175 10.1747 22.6344L10.2104 22.3755H7.28702L8.39307 18.3045L8.15138 18.3159L7.91082 18.3261L6.80822 22.3835L6.74607 22.6127L6.68622 22.8316H9.69249C9.61653 24.1711 10.3946 25.4115 11.6146 25.8424C12.6769 26.2186 13.9222 25.9063 14.713 25.0649C15.4737 24.2554 15.5162 23.2728 15.5002 22.8988C15.5002 22.876 15.499 22.8532 15.499 22.8316H23.2254V22.8886C23.2081 23.2728 23.2506 24.2554 24.0115 25.0649C24.5799 25.6691 25.381 25.9997 26.1809 25.9997C26.4952 25.9997 26.8094 25.9484 27.1097 25.8424C28.3297 25.4115 29.1078 24.1711 29.0319 22.8316H32.0381ZM8.67966 16.372L8.44602 16.3527L8.03629 17.8644L8.27798 17.8541L8.51853 17.8428L8.9133 16.3914L8.67966 16.372ZM25.8346 0L25.5939 0.730765C24.8758 2.92191 24.1564 5.11308 23.4383 7.30309L23.0918 8.3599C22.2159 7.95177 20.9176 7.52197 19.3708 7.54933H19.3582C17.8067 7.52426 16.5084 7.95177 15.6326 8.3599L15.2861 7.30309C14.5679 5.11308 13.8497 2.92191 13.1304 0.730765L12.8899 0L9.11357 13.8982L9.32995 13.9815L9.54632 14.0635L12.9324 1.60176C13.5712 3.55007 14.2099 5.49727 14.8475 7.44445L15.3598 9.00402L15.5991 8.88317C16.4232 8.4682 17.748 7.97571 19.3547 8.00535H19.3742C20.9855 7.97799 22.3011 8.4682 23.1252 8.88317L23.3657 9.00402L23.8768 7.44445C24.5144 5.49727 25.1531 3.55007 25.793 1.60176L29.1791 14.0635L29.3955 13.9815L29.6108 13.8982L25.8346 0ZM8.99271 14.3406L8.56802 15.9046L8.80166 15.924L9.0353 15.9434L9.42548 14.507L9.20909 14.4238L8.99271 14.3406ZM29.7316 14.3416L29.5164 14.4238L29.3 14.507L29.6902 15.9434L29.9238 15.924L30.1564 15.9058L29.7316 14.3416ZM30.2783 16.3527L30.0459 16.372L29.8121 16.3914L30.207 17.8428L30.4475 17.8541L30.688 17.8644L30.2783 16.3527Z" fill="black" fill-opacity="0.87"/>
<path d="M21.1868 14.9493C20.9163 14.9493 20.6977 14.7326 20.6977 14.4647V11.528C20.6977 11.2601 20.9163 11.0435 21.1868 11.0435C21.4572 11.0435 21.6759 11.2601 21.6759 11.528V14.4647C21.6759 14.7315 21.4572 14.9493 21.1868 14.9493Z" fill="black" fill-opacity="0.87"/>
<path d="M17.8256 14.4364C17.5573 14.4648 17.3157 14.2721 17.2869 14.0054L17.0486 11.7891C17.0198 11.5235 17.2144 11.2841 17.4837 11.2556C17.7519 11.2271 17.9936 11.4198 18.0224 11.6865L18.2605 13.9028C18.2894 14.1695 18.0948 14.4078 17.8256 14.4364Z" fill="black" fill-opacity="0.87"/>
<path d="M11.875 15.2013C11.8405 15.2914 11.7531 15.3472 11.661 15.3472C11.6333 15.3472 11.6046 15.3416 11.5781 15.3313L9.42353 14.507L9.20715 14.4238L8.99077 14.3406L5.86019 13.1424C5.7405 13.0968 5.6818 12.9646 5.72783 12.8471C5.77388 12.7297 5.90738 12.6716 6.02593 12.7172L9.11162 13.8982L9.328 13.9814L9.54437 14.0635L11.7438 14.9061C11.8624 14.9517 11.9211 15.0839 11.875 15.2013Z" fill="black" fill-opacity="0.87"/>
<path d="M11.4305 16.3709C11.4213 16.4896 11.3201 16.5796 11.2015 16.5796H11.1819L8.91112 16.3915L8.67748 16.3721L8.44384 16.3527L5.07273 16.0734C4.94612 16.0631 4.85174 15.9526 4.86326 15.8271C4.8736 15.7018 4.98295 15.6082 5.11185 15.6197L8.56584 15.9047L8.79948 15.9241L9.03312 15.9434L11.2211 16.1248C11.3477 16.135 11.4409 16.2456 11.4305 16.3709Z" fill="black" fill-opacity="0.87"/>
<path d="M11.4389 17.9421C11.4446 18.0676 11.3468 18.1735 11.219 18.1792L8.39117 18.3046L8.14948 18.3161L7.90893 18.3263L5.09486 18.4517H5.0845C4.9625 18.4517 4.86007 18.3559 4.85547 18.234C4.84971 18.1074 4.94754 18.0014 5.07414 17.9957L8.03437 17.8645L8.27607 17.8543L8.51662 17.843L11.1983 17.7243C11.3284 17.7175 11.4331 17.8156 11.4389 17.9421Z" fill="black" fill-opacity="0.87"/>
<path d="M32.8614 13.1424L29.7297 14.3417L29.5144 14.4238L29.2981 14.507L27.1435 15.3313C27.1159 15.3416 27.0882 15.3472 27.0606 15.3472C26.9686 15.3472 26.881 15.2914 26.8453 15.2013C26.7994 15.0839 26.8591 14.9517 26.9777 14.9061L29.1772 14.0635L29.3936 13.9814L29.6088 13.8982L32.6956 12.7172C32.813 12.6716 32.9477 12.7297 32.9937 12.8471C33.0386 12.9646 32.9799 13.0968 32.8614 13.1424Z" fill="black" fill-opacity="0.87"/>
<path d="M33.8567 15.8273C33.867 15.9527 33.7727 16.0633 33.646 16.0735L30.2749 16.3529L30.0424 16.3723L29.8088 16.3916L27.5368 16.5797H27.5173C27.3999 16.5797 27.2986 16.4897 27.2882 16.3711C27.2778 16.2457 27.3723 16.1351 27.4988 16.1248L29.6868 15.9436L29.9204 15.9242L30.1529 15.906L33.608 15.6198C33.7347 15.6072 33.8463 15.7018 33.8567 15.8273Z" fill="black" fill-opacity="0.87"/>
<path d="M33.865 18.234C33.8591 18.3559 33.7579 18.4517 33.6348 18.4517H33.6243L30.8103 18.3263L30.571 18.316L30.3293 18.3046L27.5003 18.1793C27.3736 18.1735 27.2746 18.0675 27.2803 17.9422C27.2862 17.8155 27.3908 17.7198 27.521 17.7244L30.2038 17.8429L30.4443 17.8543L30.6848 17.8646L33.6452 17.9957C33.7728 18.0013 33.8707 18.1074 33.865 18.234Z" fill="black" fill-opacity="0.87"/>
<path d="M25.9208 23.5795C26.0087 23.8303 26.0849 24.1359 26.1092 24.4859C26.1381 24.8974 26.0861 25.2554 26.0144 25.5392L25.9208 23.5795Z" fill="white"/>
<path d="M26.0154 25.7673C25.9971 25.7673 25.9786 25.765 25.9602 25.7605C25.8371 25.7308 25.7611 25.6066 25.7922 25.4846C25.8728 25.1596 25.9027 24.829 25.8797 24.5018C25.86 24.2179 25.8003 23.933 25.7036 23.6547C25.6621 23.5362 25.7254 23.4062 25.8462 23.3653C25.9671 23.3242 26.0971 23.3868 26.1385 23.5066C26.249 23.8223 26.3158 24.1472 26.3388 24.4711C26.3654 24.8461 26.3308 25.2234 26.2387 25.5951C26.2122 25.6977 26.1178 25.7673 26.0154 25.7673Z" fill="black" fill-opacity="0.87"/>
<path d="M27.4216 23.4894C27.5627 23.714 27.6852 23.9876 27.7234 24.3011C27.7697 24.6694 27.6864 24.9897 27.5719 25.2451L27.4216 23.4894Z" fill="white"/>
<path d="M27.5715 25.4719C27.5404 25.4719 27.5093 25.4651 27.4782 25.4525C27.362 25.4012 27.309 25.2667 27.3608 25.1516C27.4829 24.878 27.5266 24.6009 27.4932 24.3274C27.4632 24.0879 27.3736 23.8463 27.2251 23.608C27.1583 23.5008 27.1916 23.3605 27.2999 23.2945C27.4081 23.2283 27.5497 23.2614 27.6164 23.3685C27.8006 23.6626 27.9121 23.9671 27.9501 24.2726C27.9939 24.6283 27.9375 24.9863 27.7821 25.3362C27.7441 25.4218 27.6601 25.4719 27.5715 25.4719Z" fill="black" fill-opacity="0.87"/>
<path d="M12.803 23.5795C12.7151 23.8303 12.6388 24.1359 12.6145 24.4859C12.5856 24.8974 12.6376 25.2554 12.7093 25.5392L12.803 23.5795Z" fill="white"/>
<path d="M12.707 25.7673C12.6035 25.7673 12.5102 25.6976 12.4838 25.594C12.3916 25.2235 12.3571 24.845 12.3836 24.4698C12.4054 24.145 12.4734 23.8211 12.5839 23.5054C12.6254 23.3868 12.7566 23.3229 12.8762 23.364C12.9959 23.405 13.0603 23.535 13.0189 23.6536C12.9222 23.9317 12.8624 24.2156 12.8429 24.5006C12.8198 24.8278 12.8498 25.1585 12.9303 25.4834C12.9602 25.6054 12.8854 25.7296 12.7623 25.7593C12.7438 25.765 12.7255 25.7673 12.707 25.7673Z" fill="black" fill-opacity="0.87"/>
<path d="M11.3021 23.4894C11.1611 23.714 11.0386 23.9876 11.0004 24.3011C10.9542 24.6694 11.0374 24.9897 11.1518 25.2451L11.3021 23.4894Z" fill="white"/>
<path d="M11.1509 25.4719C11.0623 25.4719 10.9783 25.4206 10.9403 25.3362C10.7849 24.9873 10.7274 24.6294 10.7722 24.2726C10.8102 23.9671 10.9219 23.6638 11.106 23.3685C11.1728 23.2614 11.3143 23.2283 11.4225 23.2945C11.5307 23.3605 11.5641 23.5008 11.4973 23.608C11.3489 23.8451 11.2591 24.0879 11.2292 24.3274C11.1958 24.6009 11.2395 24.878 11.3615 25.1516C11.4133 25.2667 11.3604 25.4012 11.2441 25.4525C11.2131 25.4662 11.182 25.4719 11.1509 25.4719Z" fill="black" fill-opacity="0.87"/>
<path d="M8.35528 22.7984H0.244843C0.11018 22.7984 0 22.711 0 22.6043C0 22.4976 0.11018 22.4103 0.244843 22.4103H8.35528C8.48994 22.4103 8.60012 22.4976 8.60012 22.6043C8.60012 22.711 8.48994 22.7984 8.35528 22.7984Z" fill="black" fill-opacity="0.87"/>
<path d="M37.8844 22.8395H30.2593C30.1327 22.8395 30.0291 22.737 30.0291 22.6115C30.0291 22.4862 30.1327 22.3835 30.2593 22.3835H37.8844C38.011 22.3835 38.1145 22.4862 38.1145 22.6115C38.1145 22.737 38.0121 22.8395 37.8844 22.8395Z" fill="black" fill-opacity="0.87"/>
<path d="M21.7043 18.6444C21.5385 19.0707 21.1552 19.5324 20.6685 19.6021C20.2184 19.6647 19.804 19.4264 19.506 19.0559C19.4772 19.1345 19.4416 19.2155 19.3955 19.2964C19.3207 19.4288 18.919 20.083 18.2492 20.083H18.2307C17.5931 20.0717 17.0396 19.496 16.9429 18.7424C16.9279 18.617 17.0165 18.503 17.143 18.4881C17.2675 18.4722 17.3848 18.5611 17.3998 18.6854C17.4735 19.2668 17.8844 19.6213 18.2388 19.6271H18.248C18.6704 19.6271 18.9616 19.1312 18.9939 19.0742C19.1526 18.7914 19.1491 18.5018 19.1204 18.3115C19.1101 18.2762 19.1008 18.2408 19.0916 18.2055C18.6486 18.2568 18.2665 18.1029 18.1962 17.8223C18.1168 17.5032 18.4725 17.1407 18.9915 17.013C19.5117 16.8853 19.9974 17.0403 20.0768 17.3596C20.1436 17.6229 19.9145 17.9147 19.5417 18.0812C19.5531 18.1233 19.5635 18.1736 19.5728 18.2282C19.7591 18.8416 20.2357 19.2007 20.6039 19.1505C20.8895 19.1094 21.1576 18.7822 21.2738 18.4813C21.3728 18.2259 21.359 17.9854 21.3303 17.8292C21.3084 17.705 21.3912 17.5864 21.5155 17.5636C21.6421 17.5419 21.7607 17.624 21.7837 17.7471C21.8229 17.9615 21.8412 18.2898 21.7043 18.6444Z" fill="black" fill-opacity="0.87"/>
</svg>
