<svg width="64" height="11" viewBox="0 0 64 11" fill="none" xmlns="http://www.w3.org/2000/svg">
<path d="M3.8069 10.588C3.41344 10.588 3.21672 10.4796 3.21672 10.2628V1.33509H0.383837C0.285472 1.33509 0.2117 1.3006 0.162518 1.23162C0.113336 1.16264 0.0887451 1.04932 0.0887451 0.891659V0.655163C0.0887451 0.497499 0.113336 0.384177 0.162518 0.3152C0.2117 0.246222 0.285472 0.211733 0.383837 0.211733H7.30374C7.41193 0.211733 7.4857 0.246222 7.52505 0.3152C7.57423 0.384177 7.59883 0.497499 7.59883 0.655163V0.891659C7.59883 1.04932 7.57423 1.16264 7.52505 1.23162C7.4857 1.3006 7.41193 1.33509 7.30374 1.33509H4.51512V10.2628C4.51512 10.4796 4.3184 10.588 3.92494 10.588H3.8069ZM9.77997 10.5584C9.62258 10.5584 9.50947 10.5239 9.44061 10.455C9.37175 10.386 9.33733 10.2727 9.33733 10.115V0.655163C9.33733 0.497499 9.37175 0.384177 9.44061 0.3152C9.50947 0.246222 9.62258 0.211733 9.77997 0.211733H14.9293C15.0375 0.211733 15.1113 0.246222 15.1507 0.3152C15.1998 0.384177 15.2244 0.497499 15.2244 0.655163V0.891659C15.2244 1.04932 15.1998 1.16264 15.1507 1.23162C15.1113 1.3006 15.0375 1.33509 14.9293 1.33509H10.6357V4.70515H14.4867C14.5949 4.70515 14.6686 4.73964 14.708 4.80862C14.7572 4.8776 14.7818 4.99091 14.7818 5.14858V5.38508C14.7818 5.54275 14.7572 5.65606 14.708 5.72504C14.6686 5.79402 14.5949 5.82851 14.4867 5.82851H10.6357V9.43507H14.9441C15.0523 9.43507 15.126 9.46955 15.1654 9.53854C15.2146 9.60752 15.2392 9.72083 15.2392 9.8785V10.115C15.2392 10.2727 15.2146 10.386 15.1654 10.455C15.126 10.5239 15.0523 10.5584 14.9441 10.5584H9.77997ZM19.5461 10.6471C18.9559 10.6471 18.41 10.5781 17.9083 10.4402C17.4066 10.3022 17.0279 10.1347 16.7722 9.93762C16.5853 9.79967 16.4919 9.67649 16.4919 9.5681C16.4919 9.44985 16.5557 9.28726 16.6837 9.08033C16.8213 8.87339 16.9295 8.76993 17.0083 8.76993C17.0475 8.76993 17.1508 8.81919 17.3181 8.91774C17.6229 9.08525 17.9475 9.22814 18.2919 9.34638C18.646 9.46463 19.064 9.52376 19.5461 9.52376C20.1165 9.52376 20.5789 9.36609 20.933 9.05076C21.2968 8.72558 21.4789 8.30186 21.4789 7.7796C21.4789 7.415 21.3805 7.11445 21.1838 6.87796C20.987 6.6316 20.746 6.43945 20.4608 6.3015C20.1854 6.15369 19.7821 5.97632 19.251 5.76938C18.6804 5.54275 18.2279 5.33581 17.8935 5.14858C17.5591 4.96135 17.2738 4.68545 17.0378 4.32085C16.8017 3.9464 16.6837 3.45863 16.6837 2.85753C16.6837 2.32541 16.8165 1.85242 17.082 1.43856C17.3574 1.02469 17.741 0.704432 18.2329 0.477791C18.7346 0.241295 19.31 0.123047 19.9592 0.123047C20.2935 0.123047 20.6674 0.172317 21.0805 0.270857C21.4937 0.359543 21.8132 0.482718 22.0396 0.640382C22.2363 0.75863 22.3347 0.886731 22.3347 1.02469C22.3347 1.13308 22.2706 1.29075 22.1429 1.49768C22.0248 1.70461 21.9313 1.80808 21.8625 1.80808C21.8132 1.80808 21.7395 1.78344 21.6412 1.73418C21.5527 1.68491 21.4937 1.65041 21.4641 1.63071C20.9722 1.3745 20.4608 1.2464 19.9297 1.2464C19.3591 1.2464 18.8969 1.39421 18.5427 1.68983C18.1984 1.98545 18.0263 2.3944 18.0263 2.91665C18.0263 3.25169 18.1098 3.52267 18.2772 3.72961C18.4542 3.93654 18.6509 4.09421 18.8673 4.2026C19.0935 4.30114 19.482 4.4588 20.033 4.67559C20.6231 4.90223 21.105 5.12394 21.4789 5.34074C21.8526 5.54767 22.1674 5.85315 22.4232 6.25716C22.6888 6.65132 22.8216 7.1588 22.8216 7.7796C22.8216 8.66646 22.5265 9.36609 21.9363 9.8785C21.3461 10.3909 20.5494 10.6471 19.5461 10.6471ZM27.3365 10.588C26.943 10.588 26.7463 10.4796 26.7463 10.2628V1.33509H23.9134C23.815 1.33509 23.7412 1.3006 23.6921 1.23162C23.6428 1.16264 23.6183 1.04932 23.6183 0.891659V0.655163C23.6183 0.497499 23.6428 0.384177 23.6921 0.3152C23.7412 0.246222 23.815 0.211733 23.9134 0.211733H30.8333C30.9415 0.211733 31.0152 0.246222 31.0546 0.3152C31.1038 0.384177 31.1284 0.497499 31.1284 0.655163V0.891659C31.1284 1.04932 31.1038 1.16264 31.0546 1.23162C31.0152 1.3006 30.9415 1.33509 30.8333 1.33509H28.0447V10.2628C28.0447 10.4796 27.8479 10.588 27.4545 10.588H27.3365ZM35.4341 10.588C35.0407 10.588 34.8439 10.4796 34.8439 10.2628V1.33509H32.011C31.9128 1.33509 31.839 1.3006 31.7897 1.23162C31.7406 1.16264 31.7159 1.04932 31.7159 0.891659V0.655163C31.7159 0.497499 31.7406 0.384177 31.7897 0.3152C31.839 0.246222 31.9128 0.211733 32.011 0.211733H38.9309C39.0392 0.211733 39.113 0.246222 39.1522 0.3152C39.2015 0.384177 39.226 0.497499 39.226 0.655163V0.891659C39.226 1.04932 39.2015 1.16264 39.1522 1.23162C39.113 1.3006 39.0392 1.33509 38.9309 1.33509H36.1423V10.2628C36.1423 10.4796 35.9456 10.588 35.5521 10.588H35.4341ZM39.7393 10.588C39.3165 10.588 39.1049 10.5042 39.1049 10.3367C39.1049 10.2874 39.1196 10.2185 39.1491 10.1298L42.646 0.418667C42.705 0.261003 42.9018 0.182171 43.2362 0.182171H43.664C44.0182 0.182171 44.215 0.261003 44.2542 0.418667L47.7511 10.1446C47.7806 10.2135 47.7953 10.2776 47.7953 10.3367C47.7953 10.5042 47.5839 10.588 47.1609 10.588H47.0428C46.6986 10.588 46.5019 10.5092 46.4527 10.3515L45.5821 7.92741H41.2443L40.4033 10.3515C40.3541 10.5092 40.1575 10.588 39.8131 10.588H39.7393ZM45.1838 6.80405L43.6345 2.39932C43.5854 2.24165 43.5264 1.95589 43.4575 1.54202H43.428C43.3493 1.93619 43.2756 2.22195 43.2066 2.39932L41.6574 6.80405H45.1838ZM51.5768 10.6471C50.9866 10.6471 50.4407 10.5781 49.939 10.4402C49.4374 10.3022 49.0586 10.1347 48.8029 9.93762C48.616 9.79967 48.5226 9.67649 48.5226 9.5681C48.5226 9.44985 48.5865 9.28726 48.7144 9.08033C48.852 8.87339 48.9602 8.76993 49.039 8.76993C49.0782 8.76993 49.1815 8.81919 49.3488 8.91774C49.6537 9.08525 49.9783 9.22814 50.3226 9.34638C50.6767 9.46463 51.0947 9.52376 51.5768 9.52376C52.1472 9.52376 52.6096 9.36609 52.9637 9.05076C53.3276 8.72558 53.5096 8.30186 53.5096 7.7796C53.5096 7.415 53.4112 7.11445 53.2145 6.87796C53.0177 6.6316 52.7768 6.43945 52.4916 6.3015C52.2161 6.15369 51.8129 5.97632 51.2817 5.76938C50.7111 5.54275 50.2586 5.33581 49.9241 5.14858C49.5898 4.96135 49.3046 4.68545 49.0685 4.32085C48.8324 3.9464 48.7144 3.45863 48.7144 2.85753C48.7144 2.32541 48.8472 1.85242 49.1128 1.43856C49.3881 1.02469 49.7717 0.704432 50.2636 0.477791C50.7653 0.241295 51.3407 0.123047 51.9899 0.123047C52.3242 0.123047 52.6981 0.172317 53.1113 0.270857C53.5244 0.359543 53.844 0.482718 54.0703 0.640382C54.267 0.75863 54.3654 0.886731 54.3654 1.02469C54.3654 1.13308 54.3014 1.29075 54.1736 1.49768C54.0555 1.70461 53.962 1.80808 53.8932 1.80808C53.844 1.80808 53.7702 1.78344 53.6719 1.73418C53.5834 1.68491 53.5244 1.65041 53.4949 1.63071C53.003 1.3745 52.4916 1.2464 51.9604 1.2464C51.3898 1.2464 50.9276 1.39421 50.5735 1.68983C50.2291 1.98545 50.0571 2.3944 50.0571 2.91665C50.0571 3.25169 50.1406 3.52267 50.3079 3.72961C50.4849 3.93654 50.6816 4.09421 50.8981 4.2026C51.1243 4.30114 51.5127 4.4588 52.0637 4.67559C52.6539 4.90223 53.1357 5.12394 53.5096 5.34074C53.8834 5.54767 54.1981 5.85315 54.4539 6.25716C54.7195 6.65132 54.8523 7.1588 54.8523 7.7796C54.8523 8.66646 54.5572 9.36609 53.967 9.8785C53.3768 10.3909 52.5801 10.6471 51.5768 10.6471ZM57.3753 10.588C56.9818 10.588 56.7851 10.4796 56.7851 10.2628V0.507353C56.7851 0.290565 56.9818 0.182171 57.3753 0.182171H57.4934C57.8867 0.182171 58.0835 0.290565 58.0835 0.507353V5.03033H58.1426L61.7722 0.389105C61.8803 0.251148 62.1459 0.182171 62.5689 0.182171H62.7165C62.8837 0.182171 63.0116 0.201879 63.1001 0.241295C63.1886 0.270857 63.2329 0.3152 63.2329 0.374324C63.2329 0.46301 63.1836 0.56155 63.0854 0.669944L59.3967 5.28161L63.8673 10.1446C63.9559 10.2431 64.0001 10.3219 64.0001 10.3811C64.0001 10.4599 63.9509 10.5141 63.8526 10.5436C63.7542 10.5732 63.587 10.588 63.3509 10.588H63.1739C62.9574 10.588 62.7852 10.5781 62.6575 10.5584C62.5394 10.5387 62.441 10.4845 62.3624 10.3958L58.1426 5.63636H58.0835V10.2628C58.0835 10.4796 57.8867 10.588 57.4934 10.588H57.3753Z" fill="black"/>
</svg>
